/* XPM */
static char * bubble_right_xpm[] = {
"32 32 13 1",
" 	c #4D9262",
".	c #3E734E",
"+	c #7AB055",
"@	c #1D235D",
"#	c #4D8AB3",
"$	c #425B9E",
"%	c #65B1B8",
"&	c #FFFFFF",
"*	c #000000",
"=	c #33418A",
"-	c #9E2E46",
";	c #396C4E",
">	c #5A8246",
"                   .            ",
"                  . .           ",
"                   .            ",
"                                ",
"                                ",
"              +                 ",
"              ++                ",
"   +          ++  +             ",
"   +           +.++             ",
"   + +       @@@@@@             ",
"   + +      @######@            ",
"     +     @$#%%%%%%@           ",
"           @#%%&*%%*%@          ",
"          @##%%**%%*%@          ",
"          @#%%%**%%*%@       +  ",
"          @#%%%%%%%%%@      + + ",
"          @##==%%%%%=@       +  ",
"          @##%======%@          ",
"           @##%--==%#@          ",
"           @$######$@           ",
"       .    @$$$$$$@            ",
"      . .    @@@@@@             ",
"       .                        ",
"                      +         ",
"           ;;;;;;;;;> +         ",
"          ;;;;;;;;;;>;+         ",
"          ;;;;;;;;;;>;          ",
"          ;;;;;;;;;;;;          ",
"          +;;;;;;;;;;           ",
"         + +                    ",
"          +                     ",
"                                "};
