/* XPM */
static char * bubble_heart_xpm[] = {
"32 32 26 1",
" 	c #4D9262",
".	c #082B0C",
"+	c #53A03B",
"@	c #71193C",
"#	c #BC4952",
"$	c #9E2E46",
"%	c #347B2C",
"&	c #112424",
"*	c #3D7636",
"=	c #1D235D",
"-	c #4D8AB3",
";	c #65B1B8",
">	c #425B9E",
",	c #285B2F",
"'	c #000000",
")	c #FFFFFF",
"!	c #114517",
"~	c #7AB055",
"{	c #33418A",
"]	c #21110D",
"^	c #342319",
"/	c #143526",
"(	c #296640",
"_	c #282027",
":	c #503625",
"<	c #1C1724",
"                   ...          ",
"        ....      .+++.         ",
"    @@ @@+++.  .. +++++...      ",
"   @##@$$@+++..%%.+++++.%%.     ",
"   @###$$@++++.++.++++.%++%.    ",
"    @##$@++++++++%+++++++++.    ",
"  .&&@$@**++++++++++++++@@%@@   ",
" .+*&*@***+++++++++++++@##@$$@  ",
" .++*****++++++++++++++@###$$@  ",
" .+%+++++++++======+++++@##$@.  ",
"  .+++++++++=------=+++**@$@**. ",
"  .++++++++=;;;;;;->=++**,@***. ",
" .%++%++++=;';;');;-=+++**,**+. ",
" .+++%%+++=;';;'';;--=++++!!%%. ",
".%++%+++++=;';;'';;;-=%++%++..  ",
".%%!!+++++=;;;;;;;;;-=!!%%+++.~ ",
"..!!++++%+={;;;;;{{--=+%%+++%!. ",
" ..!++++%+=;{{{{{{;--=++%%%%%%. ",
" .%%+++%++=-;{{$$;--=%++%%!!%%. ",
".%++%%%%++%=>------>=%%%++%!!!. ",
".!++++%%%++%=>>>>>>=%%%%+++%!!. ",
" .%++++%++++%======%%!++%++%..] ",
" ].%!++%++++%+++%++!!%++++%%!.^]",
"].%%%!%%+++%!+++++++.%%!+%%!!.^]",
"].%%%.%%!%%//,**,**,&.!%%!!!!.^]",
"].%%!.!!%%,//,,,,/,,/&!%%.!!!.((",
"]^.!!..!%%,,//,,,////&.!!....(((",
"(((..^.!!.,,//&/////&_^..]((((((",
" (((]::...!//&_&&&&&<^:::^](((( ",
"  ((]:::^^...:::^](((]^:::](((  ",
"   (((:^^]((]::^](((((((((((    ",
"     (((((((((((((((((((((      "};
