/* XPM */
static char * bush_xpm[] = {
"32 32 10 1",
" 	c #4D9262",
".	c #082B0C",
"+	c #53A03B",
"@	c #347B2C",
"#	c #114517",
"$	c #7AB055",
"%	c #21110D",
"&	c #342319",
"*	c #296640",
"=	c #503625",
"                   ...          ",
"        ....      .+++.         ",
"       .++++.  .. +++++...      ",
"       .+++++..@@.+++++.@@.     ",
"     ...++++++.++.++++.@++@.    ",
"    .@++@++++++++@+++++++++.    ",
"  ...+++++++++++++++++++++@.    ",
" .++.++++++++++++++++++++@..    ",
" .++++++++++++++++++++++++++.   ",
" .+@+++++++++++++++++++++++++.  ",
"  .+++++++++++++++++++++++++++. ",
"  .++++++++++++++++++++++@++++. ",
" .@++@++++++++++++++++++++@+++. ",
" .+++@@+++++++++++++@+++++##@@. ",
".@++@++++++++++++++++#@++@++..  ",
".@@##+++++++++++++++++##@@+++.$ ",
"..##++++@++++++++++++++@@+++@#. ",
" ..#++++@++++@++++++@+++@@@@@@. ",
" .@@+++@++++++@++++++@++@@##@@. ",
".@++@@@@++@+++@++++++@@@++@###. ",
".#++++@@@++@@@@+++++@@@@+++@##. ",
" .@++++@++++@@+@++@@@#++@++@..% ",
" %.@#++@++++@+++@++##@++++@@#.&%",
"%.@@@#@@+++@#+++++++.@@#+@@##.&%",
"%.@@@.@@#@@##@++@++@..#@@####.&%",
"%.@@#.##@@@##@@@@#@@#.#@@.###.**",
"%&.##..#@@@@##@@@####..##....***",
"***..&.##.@@##.#####.&&..%******",
" ***%==...###.&.....%&===&%**** ",
"  **%===&&...===&%***%&===%***  ",
"   ***=&&%**%==&%***********    ",
"     *********************      "};
