/* XPM */
static char * door_open1_xpm[] = {
"32 32 9 1",
" 	c #677598",
".	c #21110D",
"+	c #755338",
"@	c #503625",
"#	c #342319",
"$	c #4D9262",
"%	c #7AB055",
"&	c #3E734E",
"*	c #000000",
"  ............................  ",
"  ............................  ",
"..++++++++++++++++++++++++++++..",
"..++++++++++++++++++++++++++++..",
"..++++++++++++++++++++++++++++..",
"..++++++++++++++++++++++++++++..",
"..@@########################@@..",
"..@@########################@@..",
"..++##@@$$$$$$$%&%%$$$$$$$$$++..",
"..++##@@$$$$$$$&%%&$$$$$$$$$++..",
"..++##@@$$$$$$$$&&$$$$$$$$$$++..",
"..++##@@$$$$$$$$$$$$$$$$$$$$++..",
"..++##@@$$$$$$$$$$$$$$$$$$$$++..",
"..++##@@$$$$$$$$$$$$$$$$$$$$++..",
"..++##@@$$$$$$$$$$$$$$$$$$$$++..",
"..++##@@$$$$$$$$$$$$$$$$$$$$++..",
"..++##@@$$$$$$$$$$$$$$$$$$$$++..",
"..++##@@$$$$$$$$$$$$$$$$$$$$++..",
"..++##@@$$$$$$$$$$$$$$$$$$$$++..",
"..++##@@$$$$$$$$$$$$$$$$$$$$++..",
"..++##@@$$$$$$$$$$$$$$$$$$$$++..",
"..++##@@&$$$$$$$$$$$$$$$$$$$++..",
"..++##@@$$$$$$$$$$$$$$$$$$$$++..",
"..++##@@$$$$$$$$$$$$$$%$$$$$++..",
"..++##@@$$$$$$$$$$$$%$%$$$$$++..",
"..++##@@$$$$$$$$$$$$%$%$$$$$++..",
"..++##@@$$$$$$$$$$$$%$$$$$$$++..",
"..++##@@$$$$$$$$$$$$$$$$$$$$++..",
"..******$$%$$$$$$$$$$$$$$$$$**..",
"..******$%$%$$$$$$$$$$$$$$$$**..",
"**$$$$$$$$%$$$$$$$$$$$$$$$$$$$**",
"**$$$$$$$$$$$$$$$$$$$$$$$$$$$$**"};
