/* XPM */
static char * door_close1_xpm[] = {
"32 32 10 1",
" 	c #677598",
".	c #21110D",
"+	c #755338",
"@	c #503625",
"#	c #342319",
"$	c #E9CE7C",
"%	c #D99945",
"&	c #000000",
"*	c #4D9262",
"=	c #7AB055",
"  ............................  ",
"  ............................  ",
"..++++++++++++++++++++++++++++..",
"..++++++++++++++++++++++++++++..",
"..++++++++++++++++++++++++++++..",
"..++++++++++++++++++++++++++++..",
"..@@########################@@..",
"..@@########################@@..",
"..++##@@@@##@@@@@@@@##@@@@##++..",
"..++##@@@@##@@@@@@@@##@@@@##++..",
"..++##@@@@@@@@@@@@@@##@@@@##++..",
"..++##@@@@@@@@@@@@@@##@@@@##++..",
"..++##@@@@@@@@@@@@@@@@@@@@##++..",
"..++##@@@@@@@@@@@@@@@@@@@@##++..",
"..++##@@@@@@@@@@@@@@@@@@@@##++..",
"..++##@@@@@@@@@@@@@@@@@@@@##++..",
"..++##@@@@@@@@@@@@@@@@$$%%##++..",
"..++##@@@@@@@@@@@@@@@@$$%%##++..",
"..++##@@@@@@@@@@@@@@@@%%%%##++..",
"..++##@@@@@@@@@@@@@@@@%%%%##++..",
"..++##@@@@@@@@@@@@@@@@######++..",
"..++##@@@@@@@@@@@@@@@@######++..",
"..++##@@@@##@@@@@@@@@@@@@@##++..",
"..++##@@@@##@@@@@@@@@@@@@@##++..",
"..++##@@@@##@@@@@@@@@@@@@@##++..",
"..++##@@@@##@@@@@@@@@@@@@@##++..",
"..++##@@@@##@@@@@@@@##@@@@##++..",
"..++##@@@@##@@@@@@@@##@@@@##++..",
"..&&&&&&&&&&&&&&&&&&&&&&&&&&&&..",
"..&&&&&&&&&&&&&&&&&&&&&&&&&&&&..",
"&&********=*******************&&",
"&&****************************&&"};
