/* XPM */
static char *_17f23babd814159b8afcc95c0f2feb4xQGsB7J2SiteiZc4[] = {
/* columns rows colors chars-per-pixel */
"128 128 4 1 ",
"  c black",
". c #FF00B6",
"X c #9015F6",
"o c white",
/* pixels */
"................................................................................................................................",
"................................................................................................................................",
"................................................................................................................................",
"................................................................................................................................",
"................................................................................................................................",
"................................................................................................................................",
"................................................................................................................................",
"................................................................................................................................",
".............XXX................................................................................................................",
".............XXX................................................................................................................",
".............XXX................................................................................................................",
"..........XXXoooXXX.............................................................................................................",
"..........XXXoooXXX.............................................................................................................",
"..........XXXoooXXX.............................................................................................................",
".............XXX................................................................................................................",
".............XXX................................................................................................................",
".............XXX................................................................................................................",
"................................................................................................................................",
"................................................................................................................................",
"................................................................................................................................",
"................................................................................................................................",
"................................................................................................................................",
"..............................                                                                        ..........................",
"..............................                                                                        ..........................",
"..............................                                                                        ..........................",
"..............................                                                                        ..........................",
"..................................................................................................    ..........................",
"..................................................................................................    ..........................",
"..................................................................................................    ..........................",
"..................................................................................................    ..........................",
"..................................................................................................    ..........................",
"..................................................................................................    ..........................",
"..................................................................................................    ..........................",
"..................................................................................................    ..........................",
"..................................................................................................    ..........................",
"..................................................................................................    ..........................",
"..................................................................................................    ..........................",
"..................................................................................................    ..........................",
"..................................................................................................    ..........................",
"..................................................................................................    ..........................",
"..................................................................................................    ..........................",
"..................................................................................................    ..........................",
"..................................................................................................    ..........................",
"..................................................................................................    ..........................",
"..................................................................................................    ..........................",
"..................................................................................................    ..........................",
"..................................................................................................    ..........................",
"..................................................................................................    ..........................",
"..................................................................................................    ..........................",
"..................................................................................................    ..........................",
"..................................................................................................    ..........................",
"..................................................................................................    ..........................",
"..................................................................................................    ..........................",
"..................................................................................................    ..........................",
"..................................................................................................    ..........................",
"..................................................................................................    ..........................",
"..................................................................................................    ..........................",
"..................................................................................................    ..........................",
"..................................................................................................    ..........................",
"..................................................................................................    ..........................",
"..................................................................................................    ..........................",
"..................................................................................................    ..........................",
"..................................................................................................    ..........................",
"..................................................................................................    ..........................",
"..................................................................................................    ..........................",
"..................................................................................................    ..........................",
"..................................................................................................    ..........................",
"..................................................................................................    ..........................",
".............................................................                                         ..........................",
".............................................................                                         ..........................",
".............................................................                                         ..........................",
".............................................................                                         ..........................",
"..................................................................................................    ..........................",
"..................................................................................................    ..........................",
"..................................................................................................    ..........................",
"..................................................................................................    ..........................",
"..................................................................................................    ..........................",
"..................................................................................................    ..........................",
"..................................................................................................    ..........................",
"..................................................................................................    ..........................",
"..................................................................................................    ..........................",
"..................................................................................................    ..........................",
"..................................................................................................    ..........................",
"..................................................................................................    ..........................",
"..................................................................................................    ..........................",
"..................................................................................................    ..........................",
"..................................................................................................    ..........................",
"..................................................................................................    ..........................",
"..................................................................................................    ..........................",
"..................................................................................................    ..........................",
"..................................................................................................    ..........................",
"..................................................................................................    ..........................",
"..................................................................................................    ..........................",
"..................................................................................................    ..........................",
"..................................................................................................    ..........................",
"..................................................................................................    ..........................",
"..................................................................................................    ..........................",
"..................................................................................................    ..........................",
"..................................................................................................    ..........................",
"..................................................................................................    ..........................",
"..................................................................................................    ..........................",
"..................................................................................................    ..........................",
"..................................................................................................    ..........................",
"..................................................................................................    ..........................",
"..................................................................................................    ..........................",
"..................................................................................................    ..........................",
"..................................................................................................    ..........................",
"..................................................................................................    ..........................",
"..................................................................................................    ..........................",
"..................................................................................................    ..........................",
"................................                                                                      ..........................",
"................................                                                                      ..........................",
"................................                                                                      ..........................",
"................................                                                                      ..........................",
"................................................................................................................................",
"................................................................................................................................",
"................................................................................................................................",
"................................................................................................................................",
"................................................................................................................................",
"................................................................................................................................",
"................................................................................................................................",
"................................................................................................................................",
"................................................................................................................................",
"................................................................................................................................",
"................................................................................................................................",
"................................................................................................................................",
"................................................................................................................................",
"................................................................................................................................"
};
