/* XPM */
static char * item1_xpm[] = {
"32 32 7 1",
" 	c #4D9262",
".	c #3E734E",
"+	c #71193C",
"@	c #7AB055",
"#	c #BC4952",
"$	c #9E2E46",
"%	c #3B7251",
"                   .            ",
"                  . .           ",
"                   .            ",
"                                ",
"                                ",
"         ++++++   ++++++        ",
"         ++++++@  ++++++        ",
"   @     ++++++@  ++++++        ",
"   @  +++######+++$$$$$$+++     ",
"   @ @+++######+++$$$$$$+++     ",
"   @ @+++######+++$$$$$$+++     ",
"     @+++#########$$$$$$+++     ",
"      +++#########$$$$$$+++     ",
"      +++#########$$$$$$+++     ",
"         +++######$$$+++     @  ",
"         +++######$$$+++    @ @ ",
"         +++######$$$+++     @  ",
"      %%%%%%+++$$$+++%%%%%%     ",
"      %%%%%%+++$$$+++%%%%%%     ",
"      %%%%%%+++$$$+++%%%%%%     ",
"      %%%%%%%%%+++%%%%%%%%%     ",
"      %%%%%%%%%+++%%%%%%%%%     ",
"      %%%%%%%%%+++%%%%%%%%%     ",
"         %%%%%%%%%%%%%%%        ",
"         %%%%%%%%%%%%%%%        ",
"         %%%%%%%%%%%%%%%        ",
"                    @           ",
"                                ",
"          @                     ",
"         @ @                    ",
"          @                     ",
"                                "};
