/* XPM */
static char *c263b90441c948c2ac23dcdd94fe1eec96q1JYMGHctdGMoM[] = {
/* columns rows colors chars-per-pixel */
"128 128 2 1 ",
"  c black",
". c #36A420",
/* pixels */
"................................................................................................................................",
"................................................................................................................................",
"................................................................................................................................",
"................................................................................................................................",
"................................................................................................................................",
"................................................................................................................................",
"................................................................................................................................",
"................................................................................................................................",
"................................................................................................................................",
"................................................................................................................................",
"................................................................................................................................",
"................................................................................................................................",
"................................................................................................................................",
"................................................................................................................................",
"..........................    ..................................................................................................",
"..........................    .......................................................................    .......................",
"..........................    ......................................................................     .......................",
"..........................    .....................................................................      .......................",
"..........................    .....................................................................      .......................",
"..........................    ....................................................................       .......................",
"..........................    ...................................................................        .......................",
"..........................    ..................................................................         .......................",
"..........................    .................................................................          .......................",
"..........................    .................................................................          .......................",
"..........................    ................................................................      .    .......................",
"..........................    ...............................................................      ..    .......................",
"..........................    ..............................................................       ..    .......................",
"..........................    .............................................................       ...    .......................",
"..........................    .............................................................      ....    .......................",
"..........................    ............................................................      .....    .......................",
"..........................    ...........................................................      ......    .......................",
"..........................    ..........................................................       ......    .......................",
"..........................    .........................................................       .......    .......................",
"..........................    .........................................................      ........    .......................",
"..........................    ........................................................      .........    .......................",
"..........................    .......................................................      ..........    .......................",
"..........................    ......................................................       ..........    .......................",
"..........................    .....................................................       ...........    .......................",
"..........................    .....................................................      ............    .......................",
"..........................    ....................................................      .............    .......................",
"..........................    ...................................................      ..............    .......................",
"..........................    ..................................................       ..............    .......................",
"..........................    .................................................       ...............    .......................",
"..........................    .................................................      ................    .......................",
"..........................    ................................................      .................    .......................",
"..........................    ...............................................      ..................    .......................",
"..........................    ..............................................       ..................    .......................",
"..........................    .............................................       ...................    .......................",
"..........................    .............................................      ....................    .......................",
"..........................    ............................................      .....................    .......................",
"..........................    ...........................................      ......................    .......................",
"..........................    ..........................................       ......................    .......................",
"..........................    .........................................       .......................    .......................",
"..........................    .........................................      ........................    .......................",
"..........................    ........................................      .........................    .......................",
"..........................    .......................................      ..........................    .......................",
"..........................    ......................................       ..........................    .......................",
"..........................    .....................................       ...........................    .......................",
"..........................    .....................................      ............................    .......................",
"..........................    ....................................      .............................    .......................",
"..........................    ...................................      ..............................    .......................",
"..........................    ..................................       ..............................    .......................",
"..........................    .................................       ...............................    .......................",
"..........................    .................................      ................................    .......................",
"..........................    ................................      .................................    .......................",
"..........................    ...............................      ..................................    .......................",
"..........................    ..............................       ..................................    .......................",
"..........................    ..............................      ...................................    .......................",
"..........................    .............................      ....................................    .......................",
"..........................    ............................      .....................................    .......................",
"..........................    ...........................       .....................................    .......................",
"..........................    ..........................       ......................................    .......................",
"..........................    ..........................      .......................................    .......................",
"..........................    .........................      ........................................    .......................",
"..........................    ........................      .........................................    .......................",
"..........................    .......................       .........................................    .......................",
"..........................    ......................       ..........................................    .......................",
"..........................    ......................      ...........................................    .......................",
"..........................    .....................      ............................................    .......................",
"..........................    ....................      .............................................    .......................",
"..........................    ...................       .............................................    .......................",
"..........................    ..................       ..............................................    .......................",
"..........................    ..................      ...............................................    .......................",
"..........................    .................      ................................................    .......................",
"..........................    ................      .................................................    .......................",
"..........................    ...............       .................................................    .......................",
"..........................    ..............       ..................................................    .......................",
"..........................    ..............      ...................................................    .......................",
"..........................    .............      ....................................................    .......................",
"..........................    ............      .....................................................    .......................",
"..........................    ...........       .....................................................    .......................",
"..........................    ..........       ......................................................    .......................",
"..........................    ..........      .......................................................    .......................",
"..........................    .........      ........................................................    .......................",
"..........................    ........      .........................................................    .......................",
"..........................    .......       .........................................................    .......................",
"..........................    ......       ..........................................................    .......................",
"..........................    ......      ...........................................................    .......................",
"..........................    .....      ............................................................    .......................",
"..........................    ....      .............................................................    .......................",
"..........................    ...       .............................................................    .......................",
"..........................    ..       ..............................................................    .......................",
"..........................    ..      ...............................................................    .......................",
"..........................    .      ................................................................    .......................",
"..........................          .................................................................    .......................",
"..........................          .................................................................    .......................",
"..........................         ..................................................................    .......................",
"..........................        ...................................................................    .......................",
"..........................       ....................................................................    .......................",
"..........................      .....................................................................    .......................",
"..........................      .....................................................................    .......................",
"..........................     ......................................................................    .......................",
"..........................    .......................................................................    .......................",
"................................................................................................................................",
"................................................................................................................................",
"................................................................................................................................",
"................................................................................................................................",
"................................................................................................................................",
"................................................................................................................................",
"................................................................................................................................",
"................................................................................................................................",
"................................................................................................................................",
"................................................................................................................................",
"................................................................................................................................",
"................................................................................................................................",
"................................................................................................................................",
"................................................................................................................................",
"................................................................................................................................"
};
