/* XPM */
static char * player_left_xpm[] = {
"32 32 15 1",
" 	c #4D9262",
".	c #3E734E",
"+	c #7AB055",
"@	c #000000",
"#	c #573A23",
"$	c #402717",
"%	c #AC7B5D",
"&	c #21110D",
"*	c #C1AC8F",
"=	c #A4A8B5",
"-	c #787E97",
";	c #2C65B5",
">	c #1D438A",
",	c #396C4E",
"'	c #5A8246",
"                   .            ",
"                  . .           ",
"                   .            ",
"                                ",
"                                ",
"              +                 ",
"              @@ @@@@           ",
"   +        @@@#@$##@           ",
"   +       @##$#$##@@           ",
"   + +    @#########$@          ",
"   + +   @###########$@         ",
"     +   @###$$###$##$@         ",
"        @$#$%%$###$$$$@         ",
"        @$$%%%%$##$$#$@         ",
"        @$@&**&%#$%##$@      +  ",
"         @@&**&*$%%#$$@     + + ",
"          @******%%$$@       +  ",
"          @%****%%$$@           ",
"           @%%%%%$$@            ",
"          @@$=--##$$@           ",
"       . @%%$==-##$**@          ",
"      . .@%%$;;;##$**@          ",
"       .  @@@;;>;;>@@           ",
"         ,,,@#$@@#$@,,+         ",
"         ,,,,,,,,,,,',+         ",
"          ,,,,,,,,,,' +         ",
"                    +           ",
"                                ",
"          +                     ",
"         + +                    ",
"          +                     ",
"                                "};
