/* XPM */
static char *result[] = {
/* columns rows colors chars-per-pixel */
"128 128 2 1 ",
"  c black",
". c #F79C21",
/* pixels */
"................................................................................................................................",
"................................................................................................................................",
"................................................................................................................................",
"................................................................................................................................",
"................................................................................................................................",
"................................................................................................................................",
"................................................................................................................................",
"................................................................................................................................",
"................................................................................................................................",
"................................................................................................................................",
"................................................................................................................................",
"................................................................................................................................",
"................................................................................................................................",
"................................................................................................................................",
"................................................................................................................................",
"................................................................................................................................",
"................................................................................................................................",
"................................................................................................................................",
"................................................................................................................................",
"................................................................................................................................",
"................................................................................................................................",
"................................................................................................................................",
"................................................................................................................................",
"......................................................            ..............................................................",
".................................................                        .......................................................",
"..............................................                               ...................................................",
"............................................                                   .................................................",
"...........................................              ......                 ................................................",
"..........................................          ..................            ..............................................",
".........................................        .........................        ..............................................",
".........................................      ............................        .............................................",
".........................................     ...............................       ............................................",
".........................................    .................................      ............................................",
"...............................................................................      ...........................................",
"................................................................................     ...........................................",
"................................................................................     ...........................................",
"................................................................................      ..........................................",
".................................................................................     ..........................................",
".................................................................................     ..........................................",
"..................................................................................    ..........................................",
"..................................................................................    ..........................................",
"..................................................................................    ..........................................",
"..................................................................................    ..........................................",
"..................................................................................    ..........................................",
"..................................................................................    ..........................................",
"..................................................................................    ..........................................",
"..................................................................................    ..........................................",
"..................................................................................    ..........................................",
"..................................................................................    ..........................................",
"..................................................................................    ..........................................",
"..................................................................................    ..........................................",
"..................................................................................    ..........................................",
".................................................................................     ..........................................",
"................................................................................      ..........................................",
"................................................................................      ..........................................",
"...............................................................................      ...........................................",
"............................................................................        ............................................",
".........................................................................           ............................................",
"....................................................................               .............................................",
"............................................................                      ..............................................",
"....................................................                           .................................................",
"................................................                            ....................................................",
"..............................................                         .........................................................",
"............................................                   .................................................................",
"...........................................            .........................................................................",
"...........................................         ............................................................................",
"..........................................       ...............................................................................",
"..........................................      ................................................................................",
".........................................      .................................................................................",
".........................................     ..................................................................................",
".........................................     ..................................................................................",
"........................................     ...................................................................................",
"........................................     ...................................................................................",
"........................................     ...................................................................................",
"........................................    ....................................................................................",
"........................................    ....................................................................................",
"........................................    ....................................................................................",
"........................................    ....................................................................................",
"........................................    ....................................................................................",
"........................................    ....................................................................................",
"........................................    ....................................................................................",
"........................................    ....................................................................................",
"........................................    ....................................................................................",
"........................................    ....................................................................................",
"........................................    ....................................................................................",
"........................................    ....................................................................................",
"........................................    ....................................................................................",
"........................................    ....................................................................................",
"........................................     ...................................................................................",
"........................................     ...................................................................................",
"........................................     ...................................................................................",
"........................................      ..................................................................................",
".........................................      .................................................................................",
".........................................       ................................................................................",
"..........................................       ...............................................................................",
"...........................................        .............................................................................",
"...........................................         ............................................................................",
"............................................           .........................          ......................................",
".............................................                 ..............              ......................................",
"...............................................                                           ......................................",
".................................................                                         ......................................",
"....................................................                               .............................................",
"...........................................................                    .................................................",
"................................................................................................................................",
"................................................................................................................................",
"................................................................................................................................",
"................................................................................................................................",
"................................................................................................................................",
"................................................................................................................................",
"................................................................................................................................",
"................................................................................................................................",
"................................................................................................................................",
"................................................................................................................................",
"................................................................................................................................",
"................................................................................................................................",
"................................................................................................................................",
"................................................................................................................................",
"................................................................................................................................",
"................................................................................................................................",
"................................................................................................................................",
"................................................................................................................................",
"................................................................................................................................",
"................................................................................................................................",
"................................................................................................................................",
"................................................................................................................................",
"................................................................................................................................",
"................................................................................................................................",
"................................................................................................................................"
};
